<svg width="128" height="90" viewBox="0 0 128 90" fill="none" xmlns="http://www.w3.org/2000/svg">
<path d="M121 45C121 52.6 95.4767 83 64 83C32.5233 83 7 52.6 7 45C7 37.4 32.5233 7 64 7C95.4767 7 121 37.4 121 45Z" stroke="white" stroke-width="12.6667"/>
<path d="M83 45C83 50.0391 80.9982 54.8718 77.435 58.435C73.8718 61.9982 69.0391 64 64 64C58.9609 64 54.1282 61.9982 50.565 58.435C47.0018 54.8718 45 50.0391 45 45C45 39.9609 47.0018 35.1282 50.565 31.565C54.1282 28.0018 58.9609 26 64 26C69.0391 26 73.8718 28.0018 77.435 31.565C80.9982 35.1282 83 39.9609 83 45Z" stroke="white" stroke-width="12.6667"/>
</svg>
