<svg width="128" height="102" viewBox="0 0 128 102" fill="none" xmlns="http://www.w3.org/2000/svg">
<path d="M12.909 62.757C9.97243 59.2758 7.94249 55.1224 7 50.6667C7 44.3333 32.3333 12.6667 64 12.6667M112.133 36.7333C116.253 40.5253 119.31 45.3286 121 50.6667C121 57 102 88.6667 64 88.6667C62.0113 88.6667 60.0733 88.5822 58.186 88.4133M19.6667 95L108.333 6.33334M83 50.6667C83 55.7058 80.9982 60.5385 77.435 64.1017C73.8718 67.6649 69.0391 69.6667 64 69.6667C58.9609 69.6667 54.1282 67.6649 50.565 64.1017C47.0018 60.5385 45 55.7058 45 50.6667C45 45.6276 47.0018 40.7948 50.565 37.2316C54.1282 33.6684 58.9609 31.6667 64 31.6667C69.0391 31.6667 73.8718 33.6684 77.435 37.2316C80.9982 40.7948 83 45.6276 83 50.6667Z" stroke="white" stroke-width="12.6667" stroke-linecap="round" stroke-linejoin="round"/>
</svg>
