<svg width="18" height="13" viewBox="0 0 18 13" fill="none" xmlns="http://www.w3.org/2000/svg">
<g id="Group 4">
<path id="16+" d="M5.69934 3.5791V9H5.01432V4.43445L3.63318 4.93803V4.31966L5.59196 3.5791H5.69934ZM10.3427 3.60132H10.4019V4.18266H10.3427C9.97978 4.18266 9.67615 4.2419 9.43176 4.36039C9.18738 4.47641 8.9936 4.63317 8.85042 4.83065C8.70725 5.02566 8.60357 5.24536 8.53939 5.48975C8.47767 5.73413 8.44682 5.98222 8.44682 6.23401V7.02641C8.44682 7.26586 8.47521 7.47815 8.53198 7.66329C8.58876 7.84596 8.66652 8.00024 8.76526 8.12614C8.864 8.25203 8.97508 8.34707 9.09851 8.41125C9.22441 8.47544 9.35524 8.50753 9.49101 8.50753C9.64899 8.50753 9.7897 8.47791 9.91313 8.41866C10.0366 8.35695 10.1402 8.27178 10.2242 8.16317C10.3106 8.05208 10.376 7.92125 10.4204 7.77067C10.4648 7.62009 10.4871 7.4547 10.4871 7.2745C10.4871 7.11404 10.4673 6.95976 10.4278 6.81165C10.3883 6.66106 10.3278 6.52776 10.2464 6.41174C10.1649 6.29325 10.0625 6.20068 9.93905 6.13403C9.81809 6.06491 9.67368 6.03035 9.50582 6.03035C9.31574 6.03035 9.13801 6.07726 8.97262 6.17106C8.80969 6.2624 8.67516 6.38335 8.56901 6.53394C8.46533 6.68205 8.40609 6.84374 8.39128 7.019L8.0284 7.0153C8.06296 6.73882 8.12714 6.50308 8.22095 6.30806C8.31722 6.11058 8.43571 5.95013 8.57642 5.8267C8.71959 5.70081 8.87881 5.60947 9.05408 5.55269C9.23181 5.49345 9.41942 5.46383 9.6169 5.46383C9.88597 5.46383 10.118 5.51443 10.313 5.61564C10.508 5.71685 10.6685 5.85262 10.7944 6.02295C10.9203 6.19081 11.0129 6.38089 11.0721 6.59318C11.1338 6.80301 11.1647 7.019 11.1647 7.24117C11.1647 7.49543 11.1289 7.73364 11.0573 7.95581C10.9857 8.17798 10.8783 8.37299 10.7351 8.54085C10.5944 8.70871 10.4204 8.83955 10.2131 8.93335C10.0057 9.02715 9.76501 9.07406 9.49101 9.07406C9.19972 9.07406 8.94546 9.01481 8.72823 8.89632C8.511 8.77536 8.3308 8.61491 8.18762 8.41496C8.04445 8.21501 7.93707 7.99284 7.86548 7.74845C7.79389 7.50407 7.7581 7.25598 7.7581 7.00419V6.68205C7.7581 6.30189 7.79636 5.92914 7.87288 5.5638C7.94941 5.19846 8.08148 4.86768 8.26908 4.57145C8.45916 4.27523 8.72206 4.03948 9.05778 3.86422C9.3935 3.68895 9.82179 3.60132 10.3427 3.60132ZM15.5155 6.10811V6.7524H11.8201V6.10811H15.5155ZM14.0121 4.53442V8.45939H13.3271V4.53442H14.0121Z" fill="#E8A854"/>
<path id="Vector (Stroke)" d="M17.0526 6.5C17.0526 3.3888 13.4473 0.866667 9 0.866667C4.55265 0.866667 0.947368 3.3888 0.947368 6.5C0.947368 9.6112 4.55265 12.1333 9 12.1333C13.4473 12.1333 17.0526 9.6112 17.0526 6.5ZM18 6.5C18 8.38229 16.9072 10.0264 15.2698 11.1719C13.6332 12.3168 11.4132 13 9 13C6.58682 13 4.36675 12.3168 2.73016 11.1719C1.09278 10.0264 0 8.38229 0 6.5C0 4.61771 1.09278 2.97363 2.73016 1.82812C4.36675 0.683223 6.58682 0 9 0C11.4132 0 13.6332 0.683223 15.2698 1.82812C16.9072 2.97363 18 4.61771 18 6.5Z" fill="#E8A854"/>
</g>
</svg>
