<svg width="501" height="84" viewBox="0 0 501 84" fill="none" xmlns="http://www.w3.org/2000/svg">
<path d="M211.957 49.4355H217.348C217.211 52.3652 216.615 54.8945 215.561 57.0234C214.525 59.1328 213.012 60.7539 211.02 61.8867C209.047 63.0195 206.576 63.5859 203.607 63.5859C201.479 63.5859 199.555 63.166 197.836 62.3262C196.117 61.4863 194.643 60.2852 193.412 58.7227C192.201 57.1406 191.273 55.2461 190.629 53.0391C189.984 50.832 189.662 48.3516 189.662 45.5977V37.7168C189.662 34.9824 189.984 32.5117 190.629 30.3047C191.293 28.0977 192.24 26.2129 193.471 24.6504C194.721 23.0684 196.234 21.8574 198.012 21.0176C199.809 20.1777 201.84 19.7578 204.105 19.7578C206.879 19.7578 209.223 20.3145 211.137 21.4277C213.07 22.5215 214.555 24.1328 215.59 26.2617C216.645 28.3711 217.23 30.959 217.348 34.0254H211.957C211.82 31.7793 211.469 29.9531 210.902 28.5469C210.336 27.1211 209.496 26.0762 208.383 25.4121C207.289 24.7285 205.863 24.3867 204.105 24.3867C202.543 24.3867 201.186 24.6992 200.033 25.3242C198.9 25.9492 197.963 26.8477 197.221 28.0195C196.498 29.1719 195.951 30.5684 195.58 32.209C195.229 33.8301 195.053 35.6465 195.053 37.6582V45.5977C195.053 47.4727 195.199 49.2207 195.492 50.8418C195.805 52.4629 196.293 53.8887 196.957 55.1191C197.641 56.3301 198.529 57.2773 199.623 57.9609C200.717 58.6445 202.045 58.9863 203.607 58.9863C205.58 58.9863 207.143 58.6641 208.295 58.0195C209.447 57.375 210.297 56.3496 210.844 54.9434C211.41 53.5371 211.781 51.7012 211.957 49.4355Z" fill="white"/>
<path d="M237.475 20.3438V63H232.143V20.3438H237.475ZM248.695 20.3438V24.9727H220.951V20.3438H248.695Z" fill="white"/>
<path d="M266.479 24.123L254.818 63H249.311L263.051 20.3438H266.508L266.479 24.123ZM275.912 63L264.252 24.123L264.193 20.3438H267.68L281.42 63H275.912ZM275.912 47.209V51.8379H255.346V47.209H275.912Z" fill="white"/>
<path d="M297.504 43.5176L284.936 20.3438H291.234L300.111 38.8301H307.172L306.264 43.5176H297.504ZM300.346 43.0781L290.678 63H283.969L296.918 38.2148L300.346 43.0781ZM309.428 20.3438V63H304.066V20.3438H309.428ZM328.354 20.3438L315.756 43.5176H307.318L306.381 38.8301H313.178L322.055 20.3438H328.354ZM322.611 63L312.973 43.0781L316.4 38.2148L329.291 63H322.611Z" fill="white"/>
<path d="M376.225 20.3438V63H370.834V24.9727H354.164V63H348.773V20.3438H376.225Z" fill="white"/>
<path d="M399.369 46.2715H390.053V41.6719H399.369C401.127 41.6719 402.543 41.3203 403.617 40.6172C404.711 39.9141 405.502 38.9375 405.99 37.6875C406.498 36.4375 406.752 35.0117 406.752 33.4102C406.752 31.9453 406.498 30.5684 405.99 29.2793C405.502 27.9902 404.711 26.9551 403.617 26.1738C402.543 25.373 401.127 24.9727 399.369 24.9727H391.166V63H385.775V20.3438H399.369C402.123 20.3438 404.447 20.9004 406.342 22.0137C408.236 23.127 409.672 24.6699 410.648 26.6426C411.645 28.5957 412.143 30.832 412.143 33.3516C412.143 36.0859 411.645 38.4199 410.648 40.3535C409.672 42.2871 408.236 43.7617 406.342 44.7773C404.447 45.7734 402.123 46.2715 399.369 46.2715Z" fill="white"/>
<path d="M456.697 46.56C456.637 46.62 456.577 46.62 456.517 46.68L456.217 46.98C456.157 46.98 456.097 47.04 456.037 47.1C456.157 47.4 456.277 47.7 456.337 48C456.877 49.38 457.537 51.36 456.517 53.22C455.437 55.08 453.337 55.44 451.837 55.68L450.997 55.86C450.937 56.1 450.877 56.46 450.817 56.76C450.397 59.46 449.257 61.92 446.197 61.92C445.057 61.92 443.977 61.56 443.077 61.2C442.837 61.14 442.477 61.02 442.237 60.9C442.057 61.14 441.817 61.38 441.697 61.56C440.677 62.76 439.357 64.32 437.137 64.32C434.977 64.32 433.597 62.76 432.637 61.56C432.457 61.38 432.217 61.14 432.037 60.9C431.797 61.02 431.437 61.14 431.197 61.2C430.297 61.56 429.217 61.92 428.077 61.92C425.017 61.92 423.997 59.4 423.457 56.76C423.457 56.46 423.397 56.1 423.337 55.86C423.037 55.8 422.677 55.74 422.437 55.68C420.937 55.44 418.897 55.08 417.817 53.22C416.737 51.36 417.457 49.38 417.937 48C418.057 47.7 418.177 47.4 418.237 47.1C418.057 46.92 417.817 46.74 417.577 46.56C416.437 45.54 414.877 44.22 414.877 42C414.877 39.84 416.437 38.46 417.577 37.5C417.817 37.32 418.057 37.14 418.237 36.96C418.177 36.66 418.057 36.36 417.937 36.06C417.457 34.68 416.737 32.7 417.817 30.84C418.897 28.98 420.937 28.62 422.437 28.38C422.677 28.32 423.037 28.26 423.337 28.2C423.397 27.9 423.457 27.6 423.457 27.3C423.997 24.66 425.017 22.14 428.137 22.14C429.217 22.14 430.297 22.5 431.197 22.8C431.437 22.92 431.797 23.04 432.037 23.1C432.217 22.92 432.457 22.68 432.637 22.5C433.597 21.3 434.977 19.68 437.137 19.68C439.357 19.68 440.677 21.3 441.697 22.5C441.817 22.68 442.057 22.92 442.237 23.1C442.477 23.04 442.837 22.92 443.077 22.8C443.977 22.5 445.057 22.14 446.137 22.14C449.257 22.14 450.397 24.6 450.817 27.3C450.877 27.6 450.937 27.9 450.997 28.2L451.837 28.38C453.337 28.62 455.437 28.98 456.517 30.84C457.537 32.7 456.877 34.68 456.337 36.06C456.277 36.36 456.157 36.66 456.037 36.96C456.097 37.02 456.157 37.02 456.217 37.08L456.517 37.38C456.577 37.38 456.637 37.44 456.697 37.5C457.897 38.46 459.457 39.84 459.457 42C459.457 44.22 457.897 45.54 456.697 46.56ZM453.337 42C453.217 41.94 453.157 41.88 453.097 41.82C452.137 40.98 450.937 39.96 450.517 38.46C450.097 36.9 450.637 35.4 451.057 34.14V34.08L451.117 34.02C451.057 33.9 450.937 33.9 450.877 33.9C447.217 33.18 445.837 32.16 445.297 28.32C445.237 28.2 445.237 28.14 445.177 28.08H445.057C445.057 28.14 444.997 28.14 444.997 28.14C443.797 28.56 442.297 29.1 440.737 28.68C439.177 28.26 438.157 27.06 437.377 26.1C437.317 26.04 437.197 25.92 437.077 25.92L437.017 26.04C436.117 27.06 435.097 28.26 433.597 28.68C431.977 29.1 430.477 28.56 429.277 28.14L429.217 28.08H429.157C429.037 28.14 429.037 28.2 429.037 28.32C428.317 32.16 427.177 33.18 423.397 33.9C423.337 33.9 423.277 33.9 423.157 33.96C423.217 34.02 423.217 34.08 423.217 34.14C423.697 35.4 424.237 36.9 423.817 38.46C423.397 39.96 422.197 40.98 421.237 41.82L420.937 42C421.057 42.12 421.117 42.18 421.237 42.24C422.197 43.08 423.397 44.04 423.817 45.6C424.237 47.16 423.697 48.66 423.217 49.86C423.217 49.98 423.217 50.04 423.157 50.1C423.277 50.1 423.337 50.16 423.397 50.16C427.177 50.88 428.317 51.9 429.037 55.74C429.037 55.86 429.037 55.92 429.097 55.98C429.157 55.98 429.217 55.98 429.277 55.92C430.177 55.62 431.257 55.2 432.397 55.2C434.437 55.2 435.757 56.58 437.017 58.02L437.077 58.14C437.257 58.14 437.317 58.02 437.377 57.96C438.157 57 439.177 55.8 440.737 55.38C442.297 54.96 443.797 55.5 444.997 55.92C445.057 55.98 445.177 55.98 445.237 55.98C445.237 55.92 445.237 55.86 445.297 55.74C445.837 51.9 447.217 50.82 450.937 50.16L451.057 50.1H451.117C451.117 50.04 451.057 49.98 451.057 49.86C450.637 48.66 450.097 47.16 450.517 45.6C450.937 44.04 452.137 43.08 453.097 42.24C453.157 42.18 453.217 42.12 453.337 42Z" fill="white"/>
<path d="M466.225 20.3438H471.439L482.602 55.1191L493.734 20.3438H498.949L484.623 63H480.521L466.225 20.3438ZM464.525 20.3438H469.096L469.887 46.3594V63H464.525V20.3438ZM496.049 20.3438H500.619V63H495.258V46.3594L496.049 20.3438Z" fill="white"/>
<path d="M28 70H42V84H28V70Z" fill="white"/>
<path d="M14 70H28V84H14V70Z" fill="white"/>
<path d="M0 14H14V70L0 70V14Z" fill="white"/>
<path d="M14 0H28V14H14V0Z" fill="white"/>
<path d="M28 0H42V14H28V0Z" fill="white"/>
<path d="M42 14H56V28H42V14Z" fill="white"/>
<path d="M42 56H56V70L42 70V56Z" fill="white"/>
<path d="M70 0H84V84H70V0Z" fill="white"/>
<path d="M56 0H112V14H56V0Z" fill="white"/>
<path d="M112 0H126V84H112V0Z" fill="white"/>
<path d="M56 70L70 70L70 84H56V70Z" fill="white"/>
</svg>
