<svg width="200" height="201" viewBox="0 0 200 201" fill="none" xmlns="http://www.w3.org/2000/svg">
<path d="M83.8672 0.27976C90.625 1.72507 94.9219 8.3657 93.4766 15.1235L86.0156 50.0063H135.43L144.023 9.88914C145.469 3.13132 152.109 -1.16555 158.867 0.27976C165.625 1.72507 169.922 8.3657 168.477 15.1235L161.016 50.0063H187.5C194.414 50.0063 200 55.5923 200 62.5063C200 69.4204 194.414 75.0063 187.5 75.0063H155.625L144.922 125.006H171.406C178.32 125.006 183.906 130.592 183.906 137.506C183.906 144.42 178.32 150.006 171.406 150.006H139.531L130.938 190.124C129.492 196.881 122.852 201.178 116.094 199.733C109.336 198.288 105.039 191.647 106.484 184.889L113.945 150.006H64.5312L55.9375 190.124C54.4922 196.881 47.8516 201.178 41.0937 199.733C34.3359 198.288 30.0391 191.647 31.4844 184.889L38.9844 150.006H12.5C5.58594 150.006 0 144.42 0 137.506C0 130.592 5.58594 125.006 12.5 125.006H44.375L55.0781 75.0063H28.5937C21.6797 75.0063 16.0938 69.4204 16.0938 62.5063C16.0938 55.5923 21.6797 50.0063 28.5937 50.0063H60.4688L69.0625 9.88914C70.4688 3.13132 77.1094 -1.16555 83.8672 0.27976ZM80.625 75.0063L69.9219 125.006H119.336L130.039 75.0063H80.625Z" fill="#E2E2E2"/>
</svg>
